<?xml version="1.0" standalone="no"?>
<!DOCTYPE svg PUBLIC "-//W3C//DTD SVG 20010904//EN"
 "http://www.w3.org/TR/2001/REC-SVG-20010904/DTD/svg10.dtd">
<svg version="1.0" xmlns="http://www.w3.org/2000/svg"
 width="4523.000000pt" height="3980.000000pt" viewBox="0 0 4523.000000 3980.000000"
 preserveAspectRatio="xMidYMid meet">
<metadata>
Created by potrace 1.16, written by Peter Selinger 2001-2019
</metadata>
<g transform="translate(0.000000,3980.000000) scale(0.100000,-0.100000)"
fill="#000000" stroke="none">
<path d="M17840 39780 c-543 -51 -1045 -177 -1432 -360 -729 -346 -1336 -761
-1780 -1219 -282 -291 -632 -752 -823 -1085 -228 -399 -411 -871 -574 -1481
-74 -276 -176 -704 -169 -710 3 -3 538 54 1188 127 l1182 133 69 155 c257 576
501 954 818 1270 168 168 305 274 616 481 456 302 1022 446 1613 410 133 -9
189 -17 295 -45 545 -144 987 -389 1426 -789 147 -134 235 -243 416 -517 275
-415 470 -822 617 -1290 l39 -125 -11 -4645 c-7 -2555 -15 -4917 -19 -5250
l-6 -605 -559 -43 c-307 -23 -560 -41 -562 -40 -1 2 -41 1155 -88 2563 -48
1408 -91 2612 -97 2675 -47 534 -214 1136 -491 1779 -171 395 -344 700 -607
1066 -411 574 -1007 1181 -1586 1615 -344 259 -598 404 -950 543 -532 211
-976 300 -1490 301 -416 0 -773 -57 -1188 -190 -377 -121 -844 -345 -1096
-526 -771 -554 -1448 -1260 -2009 -2094 -87 -130 -157 -276 -292 -614 -245
-611 -434 -1244 -576 -1925 l-44 -210 -26 -1125 c-15 -619 -27 -1126 -28
-1126 0 -1 -77 -12 -171 -24 -1316 -170 -2446 -700 -3437 -1613 -592 -546
-1184 -1366 -1547 -2145 -129 -277 -288 -683 -340 -872 -20 -71 -28 -282 -156
-3980 l-135 -3905 -55 -4575 c-66 -5526 -89 -6976 -111 -7037 -40 -110 -171
-264 -278 -327 -154 -90 -436 -145 -603 -117 -124 21 -270 105 -369 213 -32
35 -47 64 -72 143 -44 139 -55 219 -49 344 6 126 24 197 77 308 l39 83 -82 44
c-181 97 -1886 976 -1894 976 -4 0 -14 -9 -21 -21 -10 -16 -19 -19 -41 -14
-28 6 -29 4 -59 -77 -129 -356 -226 -746 -278 -1118 -26 -183 -26 -677 0 -845
68 -444 239 -840 507 -1172 95 -118 310 -327 439 -427 302 -233 699 -453 958
-530 829 -248 1518 -256 2128 -25 404 153 777 387 1068 669 364 353 659 846
819 1370 l35 115 116 9300 116 9300 36 165 c206 951 632 1749 1261 2360 328
321 688 576 1139 812 274 142 676 258 1099 315 190 25 716 25 905 0 566 -77
1104 -260 1665 -567 501 -274 1009 -731 1359 -1223 260 -365 424 -734 487
-1097 41 -234 40 -244 -86 -2065 l-116 -1680 11 -410 c5 -225 12 -448 15 -495
3 -47 10 -175 15 -285 55 -1052 193 -2168 395 -3180 345 -1733 873 -3322 1638
-4932 57 -120 139 -299 183 -398 295 -675 729 -1438 1154 -2030 477 -666 1065
-1304 1685 -1830 421 -358 899 -698 1395 -996 232 -138 288 -166 485 -237 659
-238 1241 -343 1820 -329 825 20 1528 268 2376 838 871 586 1696 1417 2411
2429 680 964 1333 2128 1787 3188 311 727 559 1447 756 2200 42 158 111 411
155 562 395 1372 617 2495 730 3685 123 1302 114 2625 -30 4862 l-21 312 36
168 c309 1441 950 2418 1988 3027 322 189 840 374 1276 456 572 107 1169 79
1730 -80 1157 -329 1940 -908 2429 -1796 222 -403 387 -907 476 -1449 58 -355
46 191 202 -9660 l144 -9190 31 -140 c138 -630 484 -1212 940 -1579 413 -333
900 -529 1519 -613 170 -23 725 -26 915 -5 369 41 677 118 953 238 697 304
1168 880 1473 1804 139 421 183 653 183 960 -1 405 -85 755 -301 1257 l-66
152 -106 -54 c-141 -71 -1922 -993 -1926 -997 -2 -2 6 -43 18 -93 18 -74 21
-121 21 -270 0 -167 -2 -186 -28 -270 -62 -202 -168 -337 -326 -413 -137 -66
-231 -86 -390 -85 -159 0 -249 21 -375 83 -129 64 -215 150 -251 252 -13 38
-29 1211 -125 9233 -61 5055 -113 9215 -115 9245 -28 331 -66 600 -120 845
-152 694 -421 1343 -822 1985 -124 198 -154 240 -278 397 -609 766 -1301 1383
-2069 1845 -301 181 -195 144 -1370 478 -583 166 -1061 303 -1063 304 -1 2 5
95 13 207 22 278 31 898 16 1174 -61 1158 -311 2222 -773 3295 -74 170 -107
229 -261 460 -258 386 -490 672 -807 994 -810 824 -1745 1307 -2840 1465 -317
46 -454 56 -800 56 -330 0 -421 -6 -648 -41 -436 -68 -834 -207 -1197 -417
-337 -194 -941 -698 -1400 -1168 -642 -657 -991 -1238 -1304 -2174 -151 -451
-358 -1246 -406 -1560 -27 -177 -35 -478 -80 -2804 -25 -1256 -47 -2286 -50
-2289 -7 -7 -1058 59 -1066 67 -4 3 -22 2362 -41 5241 l-34 5235 39 150 c153
600 425 1144 783 1565 100 118 320 331 439 426 322 255 694 453 1114 594 251
84 253 84 571 84 308 1 390 -6 633 -55 981 -195 1748 -929 2252 -2154 l58
-140 411 0 c428 0 531 -7 871 -56 316 -45 681 -126 990 -219 90 -28 166 -50
168 -50 12 0 -50 366 -98 570 -222 960 -700 1859 -1407 2645 -591 659 -1291
1151 -2085 1469 -281 113 -757 213 -1243 262 -205 21 -734 24 -925 6 -506 -50
-919 -143 -1363 -308 -190 -71 -331 -147 -592 -318 -413 -271 -666 -480 -1045
-860 -255 -256 -446 -472 -628 -713 l-102 -134 -90 7 c-80 5 -93 9 -116 33
-14 14 -136 143 -269 286 -706 753 -1170 1169 -1628 1458 -145 92 -456 246
-572 284 -335 110 -774 204 -1185 254 -147 17 -247 22 -540 24 -198 2 -403 -1
-455 -5z m703 -111 c326 -20 671 -72 1017 -155 168 -40 415 -109 468 -131 391
-159 786 -422 1225 -815 182 -164 723 -708 1012 -1020 l190 -205 80 -7 c44 -3
110 -9 146 -12 l66 -6 106 138 c579 762 1226 1343 1982 1779 210 121 672 270
1080 349 347 67 650 91 1054 83 452 -9 801 -55 1261 -168 325 -80 786 -290
1181 -540 752 -474 1420 -1169 1917 -1995 325 -541 580 -1212 691 -1819 28
-156 29 -161 11 -157 -8 2 -80 22 -159 43 -589 163 -1242 247 -1834 238 l-218
-4 -55 130 c-344 818 -834 1445 -1409 1802 -494 307 -1082 448 -1715 413 -165
-9 -198 -14 -304 -46 -1331 -394 -2185 -1303 -2561 -2727 l-36 -137 30 -4708
c17 -2589 33 -4977 37 -5307 l6 -600 647 -41 c355 -23 648 -39 650 -37 3 2 26
1091 52 2421 26 1329 52 2488 58 2575 15 208 44 362 146 772 178 719 335 1199
537 1645 248 548 510 929 974 1417 296 311 872 817 1184 1040 602 430 1376
636 2221 594 772 -40 1420 -201 2027 -505 813 -407 1525 -1067 2129 -1971 155
-232 174 -266 265 -480 608 -1421 849 -2918 720 -4463 l-17 -202 30 -10 c16
-5 514 -147 1105 -315 l1074 -305 111 -61 c800 -448 1548 -1092 2191 -1890
196 -243 407 -578 589 -934 384 -754 592 -1517 635 -2335 6 -107 57 -4267 115
-9245 65 -5644 108 -9076 115 -9118 32 -213 230 -389 520 -463 60 -15 109 -19
245 -18 153 1 178 3 256 27 116 35 187 68 271 123 227 151 357 499 318 852 -7
64 -14 132 -14 150 l-1 34 915 473 c503 261 918 471 922 467 13 -14 108 -250
152 -379 56 -164 109 -375 133 -525 14 -86 18 -169 18 -348 -1 -258 -13 -352
-76 -590 -305 -1146 -830 -1819 -1652 -2117 -291 -105 -597 -162 -999 -185
-716 -41 -1402 122 -1904 451 -560 366 -927 903 -1110 1623 l-34 137 -150
9268 c-139 8531 -152 9279 -170 9408 -209 1544 -870 2571 -2045 3176 -497 256
-1040 430 -1570 501 -133 18 -210 22 -455 22 -183 1 -339 -4 -410 -12 -455
-53 -893 -172 -1330 -363 -559 -245 -1108 -697 -1503 -1237 -402 -551 -703
-1286 -861 -2102 l-22 -115 22 -350 c158 -2456 152 -3839 -21 -5273 -128
-1055 -325 -1975 -708 -3312 -31 -107 -82 -294 -113 -415 -402 -1562 -1090
-3131 -2026 -4618 -555 -882 -1030 -1500 -1608 -2090 -802 -821 -1722 -1448
-2510 -1710 -865 -289 -1769 -252 -2810 115 -261 92 -329 126 -660 331 -1476
916 -2639 2127 -3512 3657 -200 350 -379 708 -586 1170 -61 135 -164 360 -230
500 -598 1273 -1078 2667 -1401 4075 -321 1400 -496 2786 -551 4360 -19 542
-18 557 101 2283 67 977 111 1668 111 1762 0 309 -70 605 -219 936 -219 481
-626 989 -1116 1389 -272 223 -447 333 -807 513 -545 273 -1048 426 -1590 484
-174 19 -614 15 -790 -6 -438 -53 -870 -171 -1155 -316 -1034 -525 -1755
-1285 -2190 -2307 -130 -306 -270 -769 -324 -1073 -20 -112 -24 -357 -136
-9397 l-115 -9281 -34 -104 c-56 -172 -116 -314 -207 -498 -292 -585 -719
-1016 -1288 -1300 -304 -152 -543 -231 -841 -277 -163 -25 -590 -25 -780 0
-408 55 -774 153 -1025 277 -939 462 -1445 1111 -1556 1995 -19 148 -16 520 5
695 37 310 106 616 213 945 36 110 69 204 73 208 5 6 1790 -906 1818 -929 2
-1 -7 -35 -21 -76 -40 -116 -51 -185 -50 -313 0 -137 18 -232 69 -374 30 -84
41 -103 96 -159 119 -121 249 -197 387 -228 113 -25 310 -15 461 24 273 70
444 204 561 440 l41 82 24 1403 c14 771 49 3429 79 5907 l55 4505 134 3810
134 3810 62 180 c309 901 779 1697 1439 2440 322 362 739 723 1171 1012 757
506 1632 829 2568 948 106 14 208 25 227 25 18 0 36 4 39 9 3 4 17 519 31
1142 14 624 30 1168 36 1209 14 100 88 439 145 664 152 609 369 1245 603 1769
71 161 114 229 315 507 270 373 519 664 855 1001 443 443 889 801 1217 978
512 277 1034 449 1559 513 170 20 646 18 815 -5 464 -63 892 -194 1335 -411
222 -108 464 -269 755 -500 792 -630 1497 -1468 1877 -2231 279 -560 507
-1254 588 -1790 39 -262 31 -75 131 -3059 46 -1391 87 -2532 89 -2535 6 -5
1345 95 1350 101 1 2 10 2389 18 5305 l16 5302 -40 131 c-171 567 -450 1111
-835 1626 -178 238 -541 539 -899 745 -321 184 -777 345 -1050 370 -170 16
-525 6 -695 -20 -323 -49 -624 -150 -892 -298 -102 -56 -180 -106 -368 -236
-395 -273 -675 -570 -936 -993 -87 -141 -269 -494 -345 -668 -23 -54 -48 -100
-53 -102 -6 -2 -472 -55 -1036 -119 -564 -63 -1042 -117 -1062 -120 -30 -4
-38 -2 -38 11 0 25 117 490 171 683 268 945 586 1533 1215 2248 426 485 1113
970 1879 1326 563 262 1335 391 2068 346z"/>
<path d="M14800 32474 c-587 -55 -1054 -236 -1435 -557 -319 -268 -612 -653
-960 -1262 -108 -188 -156 -299 -251 -580 -193 -573 -303 -1159 -356 -1890
-18 -257 -15 -957 6 -1265 9 -140 18 -255 19 -256 1 -1 63 -21 137 -44 300
-94 641 -230 935 -375 1124 -552 2063 -1438 2775 -2617 87 -144 96 -156 120
-152 14 3 504 83 1089 179 585 96 1066 176 1068 179 7 7 -16 2559 -27 3091
-16 740 -39 1373 -71 1965 -13 231 -37 364 -119 655 -250 880 -667 1624 -1214
2170 -421 419 -855 664 -1316 741 -88 15 -320 25 -400 18z m365 -129 c996
-149 1989 -1266 2424 -2730 111 -376 128 -465 146 -773 54 -940 80 -2016 91
-3839 l7 -1072 -24 -6 c-93 -21 -1984 -324 -1989 -318 -3 4 -40 62 -80 128
-509 831 -1149 1535 -1868 2057 -538 390 -1131 691 -1798 912 l-141 47 -7 72
c-31 370 -32 1147 -2 1507 54 630 161 1174 332 1686 113 339 174 467 397 834
431 708 829 1101 1331 1314 360 154 855 230 1181 181z"/>
<path d="M30135 32431 c-602 -127 -1061 -366 -1478 -770 -659 -639 -1130
-1705 -1356 -3071 l-31 -185 -25 -2269 c-14 -1248 -24 -2270 -23 -2271 6 -4
2161 -426 2164 -423 1 2 46 70 99 152 547 848 1207 1540 1989 2086 480 334
1052 634 1661 870 l170 66 7 74 c57 642 44 1455 -32 2090 -247 2041 -1114
3315 -2455 3609 -260 57 -539 74 -690 42z m445 -117 c358 -46 751 -189 1035
-379 950 -636 1503 -1949 1605 -3815 19 -351 10 -1039 -18 -1348 l-7 -73 -195
-78 c-1528 -613 -2670 -1539 -3566 -2893 -57 -87 -108 -158 -112 -158 -23 0
-1973 388 -1978 393 -4 4 4 1014 19 2245 l26 2237 36 193 c245 1339 662 2287
1280 2908 397 399 858 647 1425 765 149 32 219 32 450 3z"/>
<path d="M20515 20609 c-1452 -913 -2645 -1663 -2652 -1667 -12 -7 -51 -228
-42 -235 2 -2 80 -31 173 -65 145 -52 173 -59 191 -49 12 7 1229 766 2703
1687 l2682 1675 0 136 0 135 -192 22 c-106 13 -200 22 -208 22 -8 -1 -1203
-748 -2655 -1661z m2810 1531 c144 -17 136 -13 133 -70 l-3 -50 -2635 -1646
c-1449 -905 -2643 -1650 -2652 -1655 -16 -9 -92 13 -200 56 -19 8 -25 59 -10
82 16 26 5227 3292 5252 3293 14 0 66 -5 115 -10z"/>
<path d="M21656 22233 c-16 -3 -1078 -663 -2360 -1469 l-2331 -1464 -21 -121
c-15 -85 -18 -122 -10 -124 6 -3 109 -23 228 -45 l217 -41 2410 1516 2411
1517 0 119 0 119 -257 -1 c-142 -1 -271 -4 -287 -6z m422 -143 c-3 -31 122 49
-4558 -2896 l-166 -104 -144 28 -145 27 -3 33 c-2 24 3 38 20 53 13 11 1049
665 2303 1454 l2280 1433 208 1 208 1 -3 -30z"/>
<path d="M20255 22129 c-175 -26 -326 -50 -335 -52 -8 -2 -865 -540 -1905
-1196 l-1890 -1192 -3 -107 -3 -107 178 -63 c98 -34 184 -62 191 -62 8 0 936
575 2064 1277 l2050 1276 -7 121 c-4 67 -10 128 -14 136 -5 14 -45 10 -326
-31z m223 -129 l-3 -39 -1999 -1245 -1998 -1245 -122 43 -121 43 3 34 c2 19 5
35 5 36 1 0 837 527 1857 1171 l1855 1169 230 36 c127 19 245 35 263 36 33 1
33 0 30 -39z"/>
<path d="M21530 20360 l-2865 -1800 -17 -97 c-9 -54 -17 -110 -17 -124 l-1
-26 207 -33 207 -33 36 20 c33 18 5833 3612 5836 3616 1 1 5 59 9 129 l7 126
-84 6 c-45 3 -166 8 -268 11 l-185 5 -2865 -1800z m3188 1674 l92 -7 0 -37 0
-37 -2892 -1793 -2893 -1793 -128 21 c-71 11 -131 23 -135 26 -3 4 -1 22 4 42
9 36 85 84 2834 1810 l2825 1774 101 0 c55 0 142 -3 192 -6z"/>
<path d="M22609 20114 l-3116 -1957 -23 -100 c-12 -54 -19 -101 -17 -104 11
-10 431 -111 442 -106 5 3 1417 885 3138 1960 l3127 1954 0 133 0 133 -167 17
c-93 10 -190 19 -218 22 l-50 5 -3116 -1957z m3311 1823 l115 -12 3 -51 3 -51
-3058 -1911 c-1682 -1050 -3072 -1918 -3090 -1928 -31 -18 -33 -18 -168 15
-133 33 -136 34 -133 59 3 23 374 259 3078 1958 2282 1434 3083 1932 3105
1932 17 1 82 -5 145 -11z"/>
<path d="M18615 21970 l-250 -5 -1090 -684 c-599 -376 -1094 -687 -1098 -691
-11 -9 -118 -422 -113 -435 5 -14 201 -69 223 -62 10 2 628 381 1373 841
l1355 837 -4 97 c-1 53 -5 100 -8 105 -2 4 -34 6 -71 5 -37 -1 -179 -5 -317
-8z m285 -122 c0 -7 -591 -377 -1313 -823 -1319 -814 -1346 -830 -1378 -798
-13 13 52 268 72 288 8 7 488 310 1066 674 l1053 660 122 4 c326 8 378 7 378
-5z"/>
<path d="M23615 19839 l-3320 -2069 -6 -97 c-4 -54 -4 -101 0 -104 16 -17 341
-130 353 -124 7 5 1515 942 3352 2084 l3338 2076 -4 111 c-1 62 -6 115 -9 118
-8 8 -335 76 -362 75 -12 0 -1516 -932 -3342 -2070z m3485 1928 l105 -22 3
-40 3 -40 -3272 -2035 c-1799 -1119 -3284 -2041 -3299 -2049 -25 -12 -36 -10
-131 26 -98 37 -104 40 -104 67 0 27 167 133 3280 2072 1804 1124 3287 2043
3295 2043 8 0 62 -10 120 -22z"/>
<path d="M28025 21661 l-70 -6 -3395 -2113 c-1867 -1161 -3400 -2120 -3406
-2129 -7 -10 -15 -63 -18 -118 l-7 -100 212 -53 211 -52 3464 2157 3463 2158
1 133 0 132 -192 -2 c-106 -1 -224 -4 -263 -7z m343 -147 l2 -39 -3413 -2127
c-2183 -1360 -3423 -2128 -3438 -2127 -13 0 -78 15 -144 32 l-120 32 2 33 c0
18 3 35 5 36 1 1 1520 946 3375 2099 l3371 2097 169 2 c92 2 173 3 178 2 6 0
11 -18 13 -40z"/>
<path d="M25282 19093 l-3321 -2078 -1 -116 0 -117 190 -47 c104 -26 196 -45
205 -42 12 5 6461 4013 6475 4024 3 3 6 73 8 156 l3 152 -114 73 c-62 39 -116
72 -118 72 -3 0 -1500 -935 -3327 -2077z m3388 1905 l50 -33 0 -90 0 -90
-3197 -1988 -3197 -1989 -128 34 -128 33 0 35 0 35 3263 2042 c1794 1123 3268
2042 3275 2043 7 0 35 -15 62 -32z"/>
<path d="M28715 20309 c-38 -5 -78 -15 -90 -22 -11 -8 -1320 -829 -2910 -1827
-1589 -997 -2896 -1818 -2903 -1825 -17 -15 -67 -225 -56 -234 5 -4 106 -23
225 -41 l217 -34 384 240 c212 131 1512 941 2891 1799 l2506 1560 0 142 1 141
-51 56 c-49 53 -53 56 -98 55 -25 -1 -77 -6 -116 -10z m132 -131 c20 -19 23
-31 23 -98 0 -61 -4 -80 -17 -92 -10 -8 -1291 -808 -2848 -1778 l-2830 -1762
-140 21 c-76 12 -141 24 -144 26 -2 3 0 18 5 35 8 26 348 243 2900 1844 1610
1011 2903 1816 2920 1819 74 11 108 7 131 -15z"/>
<path d="M26053 17772 c-1569 -983 -2856 -1792 -2861 -1797 -9 -9 -37 -403
-30 -411 2 -1 71 -6 153 -9 l150 -6 2810 1766 2810 1766 3 134 3 133 -92 106
c-50 58 -91 106 -92 105 -1 0 -1285 -805 -2854 -1787z m2910 1543 c9 -13 12
-46 9 -95 l-3 -75 -2772 -1741 -2772 -1741 -72 5 -71 4 5 112 c3 62 10 116 17
123 6 7 1264 798 2796 1757 l2785 1744 33 -36 c18 -21 38 -46 45 -57z"/>
<path d="M28857 18633 c-16 -3 -1291 -804 -2835 -1782 l-2807 -1778 -17 -199
c-9 -109 -16 -200 -14 -201 1 -2 84 8 184 21 l181 24 2781 1757 2780 1758 0
203 0 204 -112 -1 c-62 -1 -126 -4 -141 -6z m136 -225 c-3 -62 -8 -116 -12
-119 -3 -3 -1236 -783 -2739 -1733 l-2732 -1726 -78 -10 c-42 -6 -88 -13 -100
-16 l-24 -5 7 98 c4 54 12 103 19 110 6 6 1255 799 2775 1762 l2765 1751 63 0
63 0 -7 -112z"/>
<path d="M26035 15950 l-2830 -1801 -3 -37 c-2 -20 -9 -106 -16 -191 l-12
-153 148 7 149 7 2822 1767 2822 1767 0 206 c0 114 -2 209 -5 211 -3 3 -59 8
-125 12 l-120 6 -2830 -1801z m2963 1554 l-3 -126 -2780 -1741 -2779 -1740
-68 -5 -69 -5 7 94 c5 78 10 97 26 109 12 8 1266 808 2787 1776 l2766 1762 58
1 58 1 -3 -126z"/>
<path d="M26130 15120 l-2885 -1820 -57 -122 c-91 -197 -99 -164 63 -258 l140
-81 52 32 c29 17 1295 808 2815 1757 l2763 1725 41 71 c22 39 48 85 58 101 17
30 16 33 -34 219 -29 104 -56 191 -61 193 -6 1 -1308 -816 -2895 -1817z m2858
1542 l25 -92 -39 -67 -39 -67 -2750 -1718 c-1512 -944 -2760 -1722 -2773
-1729 -20 -11 -30 -9 -78 17 -30 16 -59 34 -65 40 -6 8 3 39 28 92 l38 82
2805 1769 c1543 974 2809 1769 2814 1767 5 -1 21 -43 34 -94z"/>
<path d="M17126 16792 c-8 -125 9 -352 39 -518 148 -801 688 -1520 1409 -1874
278 -136 501 -194 746 -193 340 1 637 121 985 399 174 139 567 527 549 543 -5
4 -828 390 -1829 856 -1001 466 -1836 856 -1856 866 l-36 18 -7 -97z m1839
-887 c930 -433 1694 -791 1698 -795 11 -10 -292 -302 -421 -405 -354 -284
-638 -396 -972 -382 -218 9 -393 58 -635 177 -495 242 -886 639 -1141 1155
-156 317 -254 701 -254 996 0 54 2 59 18 51 9 -5 778 -364 1707 -797z"/>
<path d="M28858 15893 l-87 -14 -2733 -1719 -2733 -1719 -46 -67 c-25 -37 -59
-90 -74 -118 l-27 -51 69 -149 c37 -81 72 -149 76 -150 5 0 1279 791 2831
1759 l2823 1760 22 210 c12 115 24 225 28 243 5 31 4 32 -28 31 -19 -1 -73 -8
-121 -16z m19 -145 c-3 -18 -11 -83 -18 -144 l-11 -111 -2741 -1709 c-1507
-940 -2744 -1710 -2749 -1712 -4 -2 -22 26 -39 61 l-32 65 40 69 c23 37 49 75
59 84 47 39 5422 3413 5449 3420 16 4 34 7 39 8 4 1 6 -14 3 -31z"/>
<path d="M25920 13184 c-1482 -938 -2700 -1708 -2706 -1712 -8 -5 -14 -79 -19
-223 l-7 -216 149 22 148 23 2660 1688 c1463 928 2661 1688 2661 1688 3 2 34
373 34 404 l0 32 -112 -1 -113 -1 -2695 -1704z m2797 1554 c-4 -24 -9 -82 -13
-129 l-6 -86 -2605 -1654 c-1433 -910 -2622 -1661 -2642 -1670 -20 -10 -60
-20 -88 -24 l-53 -7 0 111 c0 94 3 114 18 126 9 8 1214 771 2676 1695 1968
1243 2667 1680 2689 1680 29 0 29 -1 24 -42z"/>
<path d="M16263 14788 c580 -3101 1464 -5548 2636 -7301 679 -1016 1413 -1728
2236 -2171 l160 -86 9 4271 c4 2348 6 4272 4 4275 -3 2 -65 -34 -139 -80 -605
-379 -1165 -595 -1739 -673 -155 -20 -520 -23 -665 -4 -520 67 -981 265 -1423
609 -334 260 -642 593 -961 1040 -68 94 -124 172 -126 172 -1 0 2 -24 8 -52z
m437 -713 c142 -160 365 -374 520 -498 460 -369 914 -575 1465 -664 157 -26
628 -25 800 0 528 79 1034 267 1588 589 66 38 120 68 121 66 2 -3 -11 -7765
-13 -8030 l-1 -117 -107 61 c-618 350 -1229 917 -1783 1653 -1144 1522 -2064
3763 -2681 6535 -63 283 -139 646 -139 666 0 8 30 -23 67 -68 36 -46 110 -133
163 -193z"/>
<path d="M28420 13831 c-98 -35 -259 -134 -2575 -1585 -1358 -851 -2481 -1555
-2495 -1565 -14 -10 -55 -60 -92 -111 l-68 -93 0 -82 c0 -45 3 -110 6 -144 l7
-61 136 0 136 0 2520 1581 c1386 869 2525 1586 2531 1594 5 7 34 77 64 156
l54 142 -53 103 c-29 57 -56 104 -59 103 -4 0 -54 -17 -112 -38z m79 -138 l19
-38 -42 -109 -42 -108 -2493 -1564 -2493 -1564 -69 0 -69 0 0 68 c0 65 2 70
49 136 l49 68 2484 1556 c2164 1356 2542 1589 2580 1592 4 0 16 -17 27 -37z"/>
<path d="M25723 11254 l-2488 -1565 -27 -177 c-14 -97 -26 -178 -25 -179 1 -1
59 -16 128 -34 l126 -33 394 247 c217 136 1278 802 2359 1480 l1965 1233 136
225 c75 123 134 227 130 231 -3 4 -52 36 -108 72 l-102 64 -2488 -1564z m2517
1409 c14 -9 26 -17 28 -18 5 -4 -186 -321 -202 -334 -8 -7 -1058 -667 -2332
-1467 l-2316 -1454 -47 11 c-25 7 -49 14 -53 18 -3 3 0 49 8 101 11 76 18 98
36 110 39 28 4843 3049 4848 3049 3 1 17 -7 30 -16z"/>
<path d="M25525 10234 c-1254 -795 -2284 -1449 -2288 -1453 -5 -5 -4 -18 2
-29 10 -18 8 -21 -17 -24 l-27 -3 -13 -125 c-19 -190 -26 -174 102 -226 l110
-44 30 18 c121 73 4475 2838 4488 2851 14 14 148 322 148 341 0 4 -11 11 -24
14 -21 5 -24 10 -19 39 l5 32 -100 28 c-54 15 -103 27 -108 26 -5 0 -1035
-651 -2289 -1445z m2401 1293 c7 -7 -88 -231 -105 -248 -12 -13 -4138 -2634
-4392 -2791 l-46 -28 -48 17 -47 18 6 65 c4 36 9 81 12 100 5 34 39 57 2267
1466 l2261 1432 44 -13 c24 -8 46 -16 48 -18z"/>
<path d="M25365 9261 l-2020 -1289 -72 -92 -73 -93 0 -143 c0 -167 -19 -148
159 -162 l114 -9 1962 1233 1961 1234 147 281 c81 155 146 283 144 285 -3 3
-297 45 -301 43 0 0 -910 -580 -2021 -1288z m2143 1153 c2 -1 -42 -90 -98
-198 l-102 -195 -1933 -1215 -1933 -1216 -61 6 -61 7 0 74 0 74 53 68 c52 67
53 68 2047 1339 l1995 1272 45 -6 c25 -4 47 -8 48 -10z"/>
<path d="M25044 8131 l-1829 -1157 -16 -189 c-9 -105 -15 -191 -15 -192 1 -1
58 -10 126 -19 l125 -17 1680 1062 c924 585 1687 1070 1697 1080 18 18 258
444 258 457 -1 5 -45 37 -99 70 l-99 61 -1828 -1156z m1855 1002 c21 -18 20
-18 -69 -177 -49 -88 -97 -168 -107 -177 -18 -17 -3286 -2087 -3310 -2096 -7
-3 -34 -2 -59 2 l-46 7 7 101 c4 56 12 107 18 114 13 13 3528 2241 3538 2242
4 1 16 -7 28 -16z"/>
<path d="M26165 7913 l-100 -15 -1405 -905 c-773 -498 -1411 -911 -1418 -918
-8 -7 -23 -73 -34 -149 l-21 -136 59 -71 c33 -39 64 -77 71 -86 6 -8 16 -13
21 -12 6 2 572 350 1259 773 l1248 769 222 271 222 271 1 113 c0 84 -3 112
-12 111 -7 -1 -58 -8 -113 -16z m-7 -181 c-7 -10 -98 -122 -201 -249 l-188
-231 -1206 -743 -1206 -743 -24 29 c-18 20 -23 36 -20 54 3 14 9 54 12 88 l7
62 1386 893 c818 527 1398 895 1416 898 26 4 31 2 34 -17 2 -13 -3 -31 -10
-41z"/>
<path d="M24029 5742 c-404 -247 -694 -430 -736 -466 l-70 -60 4 -90 c3 -50 6
-97 9 -104 3 -10 38 -12 171 -6 l168 7 620 420 c341 231 623 422 627 426 8 7
41 231 35 237 -5 5 -144 44 -154 43 -5 0 -308 -183 -674 -407z m692 216 c-7
-18 -175 -137 -595 -421 l-585 -397 -100 -6 c-95 -7 -101 -6 -101 12 1 10 20
36 45 57 24 20 335 215 692 432 594 363 648 394 651 372 2 -13 -1 -35 -7 -49z"/>
<path d="M34408 23941 c-620 -130 -1129 -239 -1131 -242 -2 -2 26 -3289 64
-7304 l67 -7300 42 -135 c138 -448 350 -868 587 -1163 197 -245 388 -422 578
-536 345 -208 669 -329 1064 -398 179 -31 495 -42 672 -24 401 41 799 189
1174 436 189 124 467 426 664 720 237 354 377 684 478 1126 28 123 28 127 28
454 0 255 -5 363 -18 475 -33 268 -87 525 -154 735 -36 113 -132 365 -138 365
-7 0 -2078 -859 -2082 -864 -2 -2 12 -57 31 -122 72 -249 104 -573 72 -722
-30 -142 -100 -248 -193 -293 -55 -26 -144 -23 -216 9 -89 40 -189 156 -286
333 l-41 76 -50 7164 c-27 3940 -50 7228 -50 7307 0 129 -2 142 -17 141 -10 0
-525 -108 -1145 -238z m1046 -63 c3 -90 26 -3349 51 -7243 l46 -7080 39 -81
c57 -116 150 -253 220 -323 110 -109 264 -159 392 -126 148 37 259 164 310
353 40 150 22 459 -41 717 -16 66 -27 123 -23 126 10 9 1874 780 1877 777 9
-10 88 -242 114 -333 94 -335 137 -640 147 -1050 6 -217 5 -252 -15 -365 -100
-579 -346 -1085 -754 -1547 -201 -227 -286 -297 -522 -433 -278 -160 -594
-269 -905 -311 -155 -22 -468 -17 -639 10 -401 61 -768 198 -1119 415 -117 73
-353 299 -491 471 -262 327 -452 704 -585 1160 l-35 120 -66 7234 c-36 3979
-64 7235 -62 7237 4 4 2019 431 2043 433 8 1 14 -49 18 -161z"/>
<path d="M9610 24083 c0 -27 -38 -3333 -85 -7347 -57 -4916 -89 -7312 -96
-7339 -31 -115 -97 -210 -173 -249 -33 -17 -53 -20 -125 -16 -99 5 -158 27
-209 79 -46 45 -58 72 -82 180 -28 131 -27 278 6 487 30 189 36 366 16 425
-17 46 -55 93 -92 112 -16 8 -420 159 -899 335 -958 353 -926 343 -1026 296
-147 -68 -246 -301 -309 -729 -40 -268 -53 -438 -45 -577 45 -720 211 -1296
504 -1745 117 -181 264 -342 455 -502 442 -370 846 -574 1297 -655 181 -32
550 -32 758 0 442 68 783 209 1120 461 125 94 456 422 563 558 245 310 440
703 556 1118 l37 130 68 7280 c38 4004 68 7281 66 7283 -2 2 -2293 462 -2302
462 -2 0 -3 -21 -3 -47z m1174 -304 l1019 -202 -6 -476 c-3 -262 -33 -3495
-67 -7186 -33 -3690 -65 -6744 -70 -6785 -5 -44 -34 -152 -68 -256 -127 -381
-288 -686 -506 -958 -103 -128 -372 -397 -496 -495 -316 -252 -662 -400 -1090
-468 -91 -14 -172 -18 -390 -18 -260 1 -282 2 -402 28 -433 92 -835 310 -1254
679 -500 440 -780 1123 -845 2063 -11 162 -10 181 15 395 47 395 110 649 193
768 43 63 100 97 146 88 35 -7 1708 -621 1748 -642 57 -29 62 -128 24 -389
-40 -263 -42 -384 -12 -530 28 -135 41 -172 85 -232 38 -51 98 -93 177 -123
47 -18 82 -23 160 -24 90 -1 106 2 160 27 109 51 190 164 234 329 20 71 22
260 102 7333 44 3993 83 7266 85 7273 2 8 12 11 21 8 10 -3 477 -96 1037 -207z"/>
</g>
</svg>
